<svg xmlns="http://www.w3.org/2000/svg" xmlns:xlink="http://www.w3.org/1999/xlink" version="1.1" x="0px" y="0px" viewBox="0 0 29 37.5" xml:space="preserve"><g transform="translate(-90 -80)"><g xmlns="http://www.w3.org/2000/svg" xmlns:xlink="http://www.w3.org/1999/xlink"><g><rect x="104" y="97" width="1" height="2"/><path d="M117,88v-3c-0.805,0-2.26,0.003-4,0.198V81c-5,1-8.5,7-8.5,7C100,85,94,85,92,85v3h-2v18h29V88H117z M104,100v3.553     c-3.941-2.178-8.568-2.503-11-2.546V86.007c2.479,0.047,7.285,0.385,10.945,2.825L104,88.869V95h1v-6c0,0,3.129-5.152,7-6.665     v14.893c-3.115,0.986-5.579,3.871-7,5.92V100H104z M116,101.007c-2.135,0.038-5.964,0.293-9.533,1.824     c1.507-1.974,3.79-4.282,6.533-4.831V86.211c1.158-0.134,2.205-0.189,3-0.204V101.007z"/></g></g></g><text x="0" y="45" fill="#000000" font-size="5px" font-weight="bold" font-family="'Helvetica Neue', Helvetica, Arial-Unicode, Arial, Sans-serif">Created by Hea Poh Lin</text><text x="0" y="50" fill="#000000" font-size="5px" font-weight="bold" font-family="'Helvetica Neue', Helvetica, Arial-Unicode, Arial, Sans-serif">from the Noun Project</text></svg>